<?xml version="1.0" standalone="no"?>
<!DOCTYPE svg PUBLIC "-//W3C//DTD SVG 20010904//EN"
 "http://www.w3.org/TR/2001/REC-SVG-20010904/DTD/svg10.dtd">
<svg version="1.0" xmlns="http://www.w3.org/2000/svg"
 width="1100.000000pt" height="554.000000pt" viewBox="0 0 1100.000000 554.000000"
 preserveAspectRatio="xMidYMid meet">
<metadata>
Created by potrace 1.15, written by Peter Selinger 2001-2017
</metadata>
<g transform="translate(0.000000,554.000000) scale(0.100000,-0.100000)"
fill="#000000" stroke="none">
<path d="M9150 5289 c0 -3 38 -118 83 -257 46 -139 81 -255 77 -257 -4 -2 -30
12 -59 33 -28 20 -94 66 -146 102 -52 36 -122 84 -155 107 -76 55 -84 75 100
-272 26 -49 78 -148 115 -220 37 -71 88 -168 113 -215 24 -47 76 -146 114
-220 39 -74 88 -168 110 -209 l39 -74 -154 -156 c-229 -231 -287 -291 -287
-296 0 -3 17 -5 38 -5 31 0 55 12 121 58 164 115 198 139 336 233 139 95 236
163 430 298 55 39 136 95 180 126 l80 56 5 97 5 96 130 18 c72 10 155 22 186
28 30 5 67 10 82 10 15 0 27 5 27 10 0 6 -4 10 -10 10 -5 0 -54 21 -107 46
-97 46 -183 86 -256 118 -21 10 -43 16 -48 14 -6 -2 -59 -52 -118 -111 l-106
-108 -260 263 c-143 145 -351 357 -462 472 -112 114 -203 207 -203 205z"/>
<path d="M4680 1977 l0 -1218 40 3 40 3 0 1088 c0 903 2 1087 13 1087 8 0 88
-88 178 -196 90 -108 169 -201 174 -208 23 -26 141 -165 160 -187 11 -13 43
-51 70 -84 28 -33 58 -68 67 -80 9 -11 109 -130 223 -265 114 -135 214 -254
223 -265 56 -67 182 -216 212 -250 19 -22 53 -62 75 -89 46 -56 182 -218 324
-385 53 -62 107 -128 121 -145 13 -17 33 -40 42 -50 17 -19 18 34 18 1207 l0
1227 -40 0 -40 0 0 -1105 c0 -627 -4 -1105 -9 -1105 -5 0 -60 62 -124 138
-116 139 -150 179 -222 262 -22 26 -58 69 -80 95 -62 75 -154 185 -290 345
-53 63 -113 135 -134 159 -20 24 -41 49 -46 55 -6 6 -33 38 -60 71 -28 33 -54
65 -60 71 -5 6 -38 44 -72 85 -131 157 -307 366 -352 418 -94 111 -117 139
-156 186 -22 27 -58 70 -80 96 -35 40 -118 138 -192 227 l-23 27 0 -1218z"/>
<path d="M444 3164 c-24 -11 -30 -20 -27 -35 3 -11 9 -22 14 -25 5 -3 9 -11 9
-19 0 -7 14 -44 31 -82 44 -98 47 -104 99 -233 19 -47 41 -98 80 -185 34 -77
50 -115 50 -119 0 -5 13 -34 60 -141 34 -77 50 -115 50 -119 0 -5 13 -34 60
-141 8 -18 29 -67 61 -142 5 -13 13 -33 18 -45 32 -76 53 -125 61 -143 47
-107 60 -136 60 -141 0 -4 16 -42 50 -119 5 -11 21 -47 36 -80 14 -33 35 -82
46 -110 21 -55 36 -90 94 -220 14 -33 35 -82 45 -110 11 -27 24 -59 29 -70 50
-112 70 -158 70 -166 0 -5 3 -9 8 -9 7 0 27 40 69 145 13 33 33 79 44 102 10
24 35 82 55 130 19 49 39 97 44 108 38 86 63 143 94 220 21 50 46 110 57 134
11 24 29 67 40 95 11 28 24 60 29 71 23 52 59 135 80 185 23 57 27 66 58 140
10 25 22 53 25 63 12 34 24 17 77 -113 21 -51 49 -116 86 -197 8 -17 14 -34
14 -37 0 -5 12 -34 60 -141 5 -11 18 -42 30 -70 12 -27 28 -64 36 -82 8 -17
14 -34 14 -37 0 -3 12 -31 26 -63 14 -32 32 -74 40 -93 8 -19 19 -43 24 -52 6
-10 10 -22 10 -27 0 -5 14 -40 31 -78 45 -100 47 -105 100 -230 5 -13 13 -33
18 -45 6 -13 19 -43 29 -68 11 -25 22 -52 25 -60 3 -10 11 -1 21 25 9 22 21
49 26 60 5 11 18 43 30 70 12 28 26 61 32 75 6 14 14 34 19 45 12 29 49 117
59 140 47 107 60 136 60 141 0 4 17 45 50 119 33 74 50 115 50 119 0 5 13 34
60 141 34 77 50 115 50 119 0 3 12 31 26 63 14 32 32 74 40 93 18 42 25 57 58
133 14 32 26 60 26 63 0 3 9 26 21 52 25 57 48 110 58 137 5 11 13 31 19 45 6
14 20 48 32 75 12 28 25 59 30 70 33 74 50 115 50 119 0 3 12 31 26 63 14 32
32 74 40 93 9 19 19 44 24 55 5 11 18 43 29 70 17 44 39 96 87 202 19 42 18
60 -5 73 -36 19 -50 11 -71 -37 -11 -27 -25 -56 -30 -65 -6 -10 -10 -22 -10
-27 0 -5 -14 -40 -31 -78 -17 -37 -37 -84 -45 -103 -8 -19 -19 -43 -24 -52 -6
-10 -10 -22 -10 -27 0 -5 -14 -40 -31 -78 -17 -37 -37 -84 -45 -103 -9 -19
-19 -44 -24 -55 -5 -11 -18 -42 -29 -70 -22 -58 -67 -162 -81 -187 -6 -10 -10
-22 -10 -27 0 -5 -14 -40 -31 -78 -17 -37 -37 -84 -45 -103 -9 -19 -19 -44
-24 -55 -5 -11 -18 -42 -29 -70 -10 -27 -31 -77 -46 -110 -38 -86 -56 -127
-95 -225 -12 -30 -31 -73 -41 -95 -9 -22 -33 -78 -52 -125 -19 -47 -47 -112
-62 -145 -14 -33 -30 -69 -35 -80 -78 -188 -104 -246 -110 -250 -4 -2 -20 26
-35 63 -34 84 -38 94 -70 166 -14 33 -49 114 -76 180 -28 67 -59 141 -70 165
-11 24 -29 67 -40 95 -11 28 -28 69 -39 92 -10 22 -42 96 -70 165 -28 68 -58
138 -65 154 -7 17 -25 57 -40 90 -15 33 -33 74 -41 92 -18 39 -18 67 0 106 8
18 28 63 45 100 17 38 31 73 31 78 0 5 4 17 10 27 5 9 19 40 30 67 12 28 25
59 30 70 47 107 60 136 60 141 0 4 16 42 50 119 48 108 60 137 60 143 1 4 9
25 20 47 26 54 25 81 -2 89 -41 11 -45 7 -83 -81 -21 -49 -45 -106 -55 -128
-10 -22 -34 -80 -55 -130 -21 -49 -46 -108 -56 -130 -10 -22 -27 -62 -37 -90
-11 -27 -31 -75 -45 -105 -13 -30 -31 -72 -38 -93 -17 -49 -36 -66 -45 -41
-11 32 -44 108 -54 126 -6 10 -10 22 -10 27 0 8 -20 54 -70 166 -5 11 -18 43
-29 70 -10 28 -31 77 -46 110 -27 62 -49 112 -67 155 -5 14 -16 38 -24 53 -8
16 -14 34 -14 41 0 6 -7 21 -15 33 -16 22 -36 22 -68 -2 -18 -13 -17 -16 8
-72 15 -32 36 -80 47 -108 10 -27 27 -68 37 -90 10 -22 36 -80 56 -130 21 -49
42 -94 47 -99 4 -6 8 -16 8 -24 0 -7 11 -37 24 -65 13 -29 33 -74 45 -102 12
-27 26 -59 31 -70 20 -43 60 -149 60 -157 0 -4 -9 -27 -19 -51 -11 -23 -54
-125 -96 -227 -42 -102 -85 -203 -95 -225 -9 -22 -28 -65 -40 -95 -12 -30 -31
-73 -40 -96 -10 -22 -42 -96 -70 -165 -28 -68 -55 -133 -60 -144 -5 -11 -19
-42 -31 -70 -12 -27 -39 -90 -60 -140 -21 -49 -42 -91 -48 -93 -6 -2 -15 9
-21 25 -6 15 -15 37 -20 48 -29 64 -65 146 -81 190 -11 28 -24 59 -29 70 -31
69 -65 147 -82 190 -21 55 -36 90 -94 220 -14 33 -35 83 -46 110 -10 28 -27
68 -37 90 -10 22 -29 65 -41 95 -29 71 -34 84 -63 150 -13 30 -41 96 -62 145
-20 50 -45 108 -55 130 -10 22 -55 128 -100 235 -45 107 -90 213 -100 235 -10
22 -44 102 -76 178 -31 75 -60 137 -63 137 -3 0 -20 -7 -37 -16z"/>
<path d="M4130 1960 l0 -1210 40 0 40 0 0 1210 0 1210 -40 0 -40 0 0 -1210z"/>
<path d="M7120 1960 l0 -1210 40 0 40 0 0 448 c0 246 4 452 8 457 7 10 149
136 203 180 24 20 119 99 169 141 14 12 54 47 90 78 36 31 67 56 70 56 3 -1
21 -22 40 -47 19 -26 67 -88 105 -138 39 -50 106 -138 149 -196 44 -57 83
-106 86 -109 3 -3 42 -52 86 -109 86 -112 129 -169 254 -331 25 -32 59 -75 75
-96 17 -21 59 -77 95 -124 168 -219 171 -222 193 -207 46 30 43 39 -37 143
-162 209 -192 248 -221 285 -16 20 -41 52 -55 70 -166 216 -295 384 -350 454
-30 39 -93 120 -140 181 -47 61 -113 148 -148 193 -35 45 -62 85 -60 90 2 7
168 151 313 272 11 10 88 75 171 146 83 70 175 148 204 173 30 25 75 63 100
85 26 22 73 63 105 90 132 112 150 128 153 136 6 14 -30 60 -44 57 -7 -2 -138
-109 -290 -238 -152 -129 -292 -248 -312 -265 -19 -16 -72 -61 -117 -100 -45
-38 -119 -101 -165 -140 -45 -38 -88 -75 -94 -80 -9 -9 -111 -95 -185 -157
-13 -11 -115 -98 -228 -194 -112 -96 -208 -174 -213 -174 -6 0 -10 256 -10
695 l0 695 -40 0 -40 0 0 -1210z"/>
</g>
</svg>
